<mxfile host="Electron" modified="2023-12-12T00:51:25.927Z" agent="Mozilla/5.0 (X11; Linux x86_64) AppleWebKit/537.36 (KHTML, like Gecko) draw.io/22.1.2 Chrome/114.0.5735.289 Electron/25.9.4 Safari/537.36" etag="L2EFJXgBoTw4dGxWQb0y" version="22.1.2" type="device" pages="7">
  <diagram name="Página-1" id="51rqvyu_YtnegG70sBJ8">
    <mxGraphModel dx="1114" dy="838" grid="1" gridSize="10" guides="1" tooltips="1" connect="1" arrows="1" fold="1" page="1" pageScale="1" pageWidth="827" pageHeight="1169" math="0" shadow="0">
      <root>
        <mxCell id="0" />
        <mxCell id="1" parent="0" />
        <mxCell id="YrZ15sEzvg9sdEkoKCGj-1" value="User" style="rounded=1;whiteSpace=wrap;html=1;verticalAlign=top;fillColor=#008a00;fontColor=#ffffff;strokeColor=#005700;" parent="1" vertex="1">
          <mxGeometry x="152" y="270" width="120" height="230" as="geometry" />
        </mxCell>
        <mxCell id="YrZ15sEzvg9sdEkoKCGj-4" style="edgeStyle=orthogonalEdgeStyle;rounded=0;orthogonalLoop=1;jettySize=auto;html=1;entryX=0.5;entryY=0;entryDx=0;entryDy=0;" parent="1" source="YrZ15sEzvg9sdEkoKCGj-2" target="YrZ15sEzvg9sdEkoKCGj-3" edge="1">
          <mxGeometry relative="1" as="geometry" />
        </mxCell>
        <mxCell id="YrZ15sEzvg9sdEkoKCGj-2" value="User" style="rounded=0;whiteSpace=wrap;html=1;fillColor=#6d8764;fontColor=#ffffff;strokeColor=#3A5431;" parent="1" vertex="1">
          <mxGeometry x="187" y="330" width="50" height="20" as="geometry" />
        </mxCell>
        <mxCell id="YrZ15sEzvg9sdEkoKCGj-3" value="Address" style="rounded=0;whiteSpace=wrap;html=1;fillColor=#6d8764;fontColor=#ffffff;strokeColor=#3A5431;" parent="1" vertex="1">
          <mxGeometry x="187" y="370" width="50" height="20" as="geometry" />
        </mxCell>
        <mxCell id="YrZ15sEzvg9sdEkoKCGj-5" value="" style="shape=cylinder3;whiteSpace=wrap;html=1;boundedLbl=1;backgroundOutline=1;size=6;fillColor=#76608a;fontColor=#ffffff;strokeColor=#432D57;" parent="1" vertex="1">
          <mxGeometry x="197" y="450" width="30" height="30" as="geometry" />
        </mxCell>
        <mxCell id="YrZ15sEzvg9sdEkoKCGj-6" value="Order" style="rounded=1;whiteSpace=wrap;html=1;verticalAlign=top;fillColor=#008a00;fontColor=#ffffff;strokeColor=#005700;" parent="1" vertex="1">
          <mxGeometry x="294" y="270" width="176" height="230" as="geometry" />
        </mxCell>
        <mxCell id="YrZ15sEzvg9sdEkoKCGj-7" style="edgeStyle=orthogonalEdgeStyle;rounded=0;orthogonalLoop=1;jettySize=auto;html=1;entryX=0;entryY=0.5;entryDx=0;entryDy=0;" parent="1" source="YrZ15sEzvg9sdEkoKCGj-8" target="YrZ15sEzvg9sdEkoKCGj-9" edge="1">
          <mxGeometry relative="1" as="geometry" />
        </mxCell>
        <mxCell id="YrZ15sEzvg9sdEkoKCGj-8" value="User" style="rounded=0;whiteSpace=wrap;html=1;fillColor=#6d8764;fontColor=#ffffff;strokeColor=#3A5431;" parent="1" vertex="1">
          <mxGeometry x="304" y="330" width="50" height="20" as="geometry" />
        </mxCell>
        <mxCell id="YrZ15sEzvg9sdEkoKCGj-15" style="edgeStyle=orthogonalEdgeStyle;rounded=0;orthogonalLoop=1;jettySize=auto;html=1;exitX=0.25;exitY=1;exitDx=0;exitDy=0;entryX=0.5;entryY=0;entryDx=0;entryDy=0;" parent="1" source="YrZ15sEzvg9sdEkoKCGj-9" target="YrZ15sEzvg9sdEkoKCGj-11" edge="1">
          <mxGeometry relative="1" as="geometry" />
        </mxCell>
        <mxCell id="YrZ15sEzvg9sdEkoKCGj-16" style="edgeStyle=orthogonalEdgeStyle;rounded=0;orthogonalLoop=1;jettySize=auto;html=1;exitX=0.75;exitY=1;exitDx=0;exitDy=0;entryX=0.5;entryY=0;entryDx=0;entryDy=0;" parent="1" source="YrZ15sEzvg9sdEkoKCGj-9" target="YrZ15sEzvg9sdEkoKCGj-12" edge="1">
          <mxGeometry relative="1" as="geometry" />
        </mxCell>
        <mxCell id="YrZ15sEzvg9sdEkoKCGj-9" value="Order" style="rounded=0;whiteSpace=wrap;html=1;fillColor=#6d8764;fontColor=#ffffff;strokeColor=#3A5431;" parent="1" vertex="1">
          <mxGeometry x="399" y="330" width="50" height="20" as="geometry" />
        </mxCell>
        <mxCell id="YrZ15sEzvg9sdEkoKCGj-10" value="" style="shape=cylinder3;whiteSpace=wrap;html=1;boundedLbl=1;backgroundOutline=1;size=6;fillColor=#76608a;fontColor=#ffffff;strokeColor=#432D57;" parent="1" vertex="1">
          <mxGeometry x="366" y="450" width="30" height="30" as="geometry" />
        </mxCell>
        <mxCell id="YrZ15sEzvg9sdEkoKCGj-11" value="Invoice" style="rounded=0;whiteSpace=wrap;html=1;fillColor=#6d8764;fontColor=#ffffff;strokeColor=#3A5431;" parent="1" vertex="1">
          <mxGeometry x="319" y="390" width="50" height="20" as="geometry" />
        </mxCell>
        <mxCell id="YrZ15sEzvg9sdEkoKCGj-12" value="Product" style="rounded=0;whiteSpace=wrap;html=1;fillColor=#6d8764;fontColor=#ffffff;strokeColor=#3A5431;" parent="1" vertex="1">
          <mxGeometry x="398" y="389" width="50" height="20" as="geometry" />
        </mxCell>
        <mxCell id="YrZ15sEzvg9sdEkoKCGj-17" value="Product" style="rounded=1;whiteSpace=wrap;html=1;verticalAlign=top;fillColor=#008a00;fontColor=#ffffff;strokeColor=#005700;" parent="1" vertex="1">
          <mxGeometry x="490" y="270" width="176" height="230" as="geometry" />
        </mxCell>
        <mxCell id="YrZ15sEzvg9sdEkoKCGj-19" value="Supplier" style="rounded=0;whiteSpace=wrap;html=1;fillColor=#6d8764;fontColor=#ffffff;strokeColor=#3A5431;" parent="1" vertex="1">
          <mxGeometry x="510" y="330" width="50" height="20" as="geometry" />
        </mxCell>
        <mxCell id="YrZ15sEzvg9sdEkoKCGj-22" value="Category" style="rounded=0;whiteSpace=wrap;html=1;fillColor=#6d8764;fontColor=#ffffff;strokeColor=#3A5431;" parent="1" vertex="1">
          <mxGeometry x="596" y="330" width="50" height="20" as="geometry" />
        </mxCell>
        <mxCell id="YrZ15sEzvg9sdEkoKCGj-23" value="" style="shape=cylinder3;whiteSpace=wrap;html=1;boundedLbl=1;backgroundOutline=1;size=6;fillColor=#76608a;fontColor=#ffffff;strokeColor=#432D57;" parent="1" vertex="1">
          <mxGeometry x="562" y="450" width="30" height="30" as="geometry" />
        </mxCell>
        <mxCell id="YrZ15sEzvg9sdEkoKCGj-24" value="Media" style="rounded=0;whiteSpace=wrap;html=1;fillColor=#6d8764;fontColor=#ffffff;strokeColor=#3A5431;" parent="1" vertex="1">
          <mxGeometry x="596" y="390" width="50" height="20" as="geometry" />
        </mxCell>
        <mxCell id="YrZ15sEzvg9sdEkoKCGj-26" style="edgeStyle=orthogonalEdgeStyle;rounded=0;orthogonalLoop=1;jettySize=auto;html=1;entryX=0;entryY=0.5;entryDx=0;entryDy=0;" parent="1" source="YrZ15sEzvg9sdEkoKCGj-25" target="YrZ15sEzvg9sdEkoKCGj-24" edge="1">
          <mxGeometry relative="1" as="geometry" />
        </mxCell>
        <mxCell id="YrZ15sEzvg9sdEkoKCGj-27" style="edgeStyle=orthogonalEdgeStyle;rounded=0;orthogonalLoop=1;jettySize=auto;html=1;entryX=0.5;entryY=1;entryDx=0;entryDy=0;" parent="1" source="YrZ15sEzvg9sdEkoKCGj-25" target="YrZ15sEzvg9sdEkoKCGj-22" edge="1">
          <mxGeometry relative="1" as="geometry">
            <Array as="points">
              <mxPoint x="540" y="370" />
              <mxPoint x="621" y="370" />
            </Array>
          </mxGeometry>
        </mxCell>
        <mxCell id="YrZ15sEzvg9sdEkoKCGj-25" value="Product" style="rounded=0;whiteSpace=wrap;html=1;fillColor=#6d8764;fontColor=#ffffff;strokeColor=#3A5431;" parent="1" vertex="1">
          <mxGeometry x="510" y="390" width="50" height="20" as="geometry" />
        </mxCell>
      </root>
    </mxGraphModel>
  </diagram>
  <diagram name="Página-2" id="up2CQx8F_jHX1GaNW355">
    <mxGraphModel dx="1114" dy="838" grid="1" gridSize="10" guides="1" tooltips="1" connect="1" arrows="1" fold="1" page="1" pageScale="1" pageWidth="827" pageHeight="1169" math="0" shadow="0">
      <root>
        <mxCell id="wQUBwngjyFSkvlIORtVp-0" />
        <mxCell id="wQUBwngjyFSkvlIORtVp-1" parent="wQUBwngjyFSkvlIORtVp-0" />
        <mxCell id="wQUBwngjyFSkvlIORtVp-2" value="User" style="rounded=1;whiteSpace=wrap;html=1;verticalAlign=top;fillColor=#008a00;fontColor=#ffffff;strokeColor=#005700;" parent="wQUBwngjyFSkvlIORtVp-1" vertex="1">
          <mxGeometry x="152" y="270" width="120" height="230" as="geometry" />
        </mxCell>
        <mxCell id="wQUBwngjyFSkvlIORtVp-3" style="edgeStyle=orthogonalEdgeStyle;rounded=0;orthogonalLoop=1;jettySize=auto;html=1;entryX=0.5;entryY=0;entryDx=0;entryDy=0;" parent="wQUBwngjyFSkvlIORtVp-1" source="wQUBwngjyFSkvlIORtVp-4" target="wQUBwngjyFSkvlIORtVp-5" edge="1">
          <mxGeometry relative="1" as="geometry" />
        </mxCell>
        <mxCell id="wQUBwngjyFSkvlIORtVp-4" value="User" style="rounded=0;whiteSpace=wrap;html=1;fillColor=#6d8764;fontColor=#ffffff;strokeColor=#3A5431;" parent="wQUBwngjyFSkvlIORtVp-1" vertex="1">
          <mxGeometry x="187" y="330" width="50" height="20" as="geometry" />
        </mxCell>
        <mxCell id="wQUBwngjyFSkvlIORtVp-5" value="Address" style="rounded=0;whiteSpace=wrap;html=1;fillColor=#6d8764;fontColor=#ffffff;strokeColor=#3A5431;" parent="wQUBwngjyFSkvlIORtVp-1" vertex="1">
          <mxGeometry x="187" y="370" width="50" height="20" as="geometry" />
        </mxCell>
        <mxCell id="wQUBwngjyFSkvlIORtVp-6" value="" style="shape=cylinder3;whiteSpace=wrap;html=1;boundedLbl=1;backgroundOutline=1;size=6;fillColor=#76608a;fontColor=#ffffff;strokeColor=#432D57;" parent="wQUBwngjyFSkvlIORtVp-1" vertex="1">
          <mxGeometry x="197" y="450" width="30" height="30" as="geometry" />
        </mxCell>
        <mxCell id="wQUBwngjyFSkvlIORtVp-7" value="Order" style="rounded=1;whiteSpace=wrap;html=1;verticalAlign=top;fillColor=#008a00;fontColor=#ffffff;strokeColor=#005700;" parent="wQUBwngjyFSkvlIORtVp-1" vertex="1">
          <mxGeometry x="294" y="270" width="176" height="230" as="geometry" />
        </mxCell>
        <mxCell id="wQUBwngjyFSkvlIORtVp-8" style="edgeStyle=orthogonalEdgeStyle;rounded=0;orthogonalLoop=1;jettySize=auto;html=1;entryX=0;entryY=0.5;entryDx=0;entryDy=0;" parent="wQUBwngjyFSkvlIORtVp-1" source="wQUBwngjyFSkvlIORtVp-9" target="wQUBwngjyFSkvlIORtVp-12" edge="1">
          <mxGeometry relative="1" as="geometry" />
        </mxCell>
        <mxCell id="wQUBwngjyFSkvlIORtVp-9" value="User" style="rounded=0;whiteSpace=wrap;html=1;fillColor=#6d8764;fontColor=#ffffff;strokeColor=#3A5431;" parent="wQUBwngjyFSkvlIORtVp-1" vertex="1">
          <mxGeometry x="304" y="330" width="50" height="20" as="geometry" />
        </mxCell>
        <mxCell id="wQUBwngjyFSkvlIORtVp-10" style="edgeStyle=orthogonalEdgeStyle;rounded=0;orthogonalLoop=1;jettySize=auto;html=1;exitX=0.25;exitY=1;exitDx=0;exitDy=0;entryX=0.5;entryY=0;entryDx=0;entryDy=0;" parent="wQUBwngjyFSkvlIORtVp-1" source="wQUBwngjyFSkvlIORtVp-12" target="wQUBwngjyFSkvlIORtVp-14" edge="1">
          <mxGeometry relative="1" as="geometry" />
        </mxCell>
        <mxCell id="wQUBwngjyFSkvlIORtVp-11" style="edgeStyle=orthogonalEdgeStyle;rounded=0;orthogonalLoop=1;jettySize=auto;html=1;exitX=0.75;exitY=1;exitDx=0;exitDy=0;entryX=0.5;entryY=0;entryDx=0;entryDy=0;" parent="wQUBwngjyFSkvlIORtVp-1" source="wQUBwngjyFSkvlIORtVp-12" target="wQUBwngjyFSkvlIORtVp-15" edge="1">
          <mxGeometry relative="1" as="geometry" />
        </mxCell>
        <mxCell id="wQUBwngjyFSkvlIORtVp-12" value="Order" style="rounded=0;whiteSpace=wrap;html=1;fillColor=#6d8764;fontColor=#ffffff;strokeColor=#3A5431;" parent="wQUBwngjyFSkvlIORtVp-1" vertex="1">
          <mxGeometry x="399" y="330" width="50" height="20" as="geometry" />
        </mxCell>
        <mxCell id="wQUBwngjyFSkvlIORtVp-13" value="" style="shape=cylinder3;whiteSpace=wrap;html=1;boundedLbl=1;backgroundOutline=1;size=6;fillColor=#76608a;fontColor=#ffffff;strokeColor=#432D57;" parent="wQUBwngjyFSkvlIORtVp-1" vertex="1">
          <mxGeometry x="366" y="450" width="30" height="30" as="geometry" />
        </mxCell>
        <mxCell id="wQUBwngjyFSkvlIORtVp-14" value="Invoice" style="rounded=0;whiteSpace=wrap;html=1;fillColor=#6d8764;fontColor=#ffffff;strokeColor=#3A5431;" parent="wQUBwngjyFSkvlIORtVp-1" vertex="1">
          <mxGeometry x="319" y="390" width="50" height="20" as="geometry" />
        </mxCell>
        <mxCell id="wQUBwngjyFSkvlIORtVp-15" value="Product" style="rounded=0;whiteSpace=wrap;html=1;fillColor=#6d8764;fontColor=#ffffff;strokeColor=#3A5431;" parent="wQUBwngjyFSkvlIORtVp-1" vertex="1">
          <mxGeometry x="398" y="389" width="50" height="20" as="geometry" />
        </mxCell>
        <mxCell id="wQUBwngjyFSkvlIORtVp-16" value="Product" style="rounded=1;whiteSpace=wrap;html=1;verticalAlign=top;fillColor=#008a00;fontColor=#ffffff;strokeColor=#005700;" parent="wQUBwngjyFSkvlIORtVp-1" vertex="1">
          <mxGeometry x="490" y="270" width="176" height="230" as="geometry" />
        </mxCell>
        <mxCell id="wQUBwngjyFSkvlIORtVp-17" value="Supplier" style="rounded=0;whiteSpace=wrap;html=1;fillColor=#6d8764;fontColor=#ffffff;strokeColor=#3A5431;" parent="wQUBwngjyFSkvlIORtVp-1" vertex="1">
          <mxGeometry x="510" y="330" width="50" height="20" as="geometry" />
        </mxCell>
        <mxCell id="wQUBwngjyFSkvlIORtVp-18" value="Category" style="rounded=0;whiteSpace=wrap;html=1;fillColor=#6d8764;fontColor=#ffffff;strokeColor=#3A5431;" parent="wQUBwngjyFSkvlIORtVp-1" vertex="1">
          <mxGeometry x="596" y="330" width="50" height="20" as="geometry" />
        </mxCell>
        <mxCell id="wQUBwngjyFSkvlIORtVp-19" value="" style="shape=cylinder3;whiteSpace=wrap;html=1;boundedLbl=1;backgroundOutline=1;size=6;fillColor=#76608a;fontColor=#ffffff;strokeColor=#432D57;" parent="wQUBwngjyFSkvlIORtVp-1" vertex="1">
          <mxGeometry x="562" y="450" width="30" height="30" as="geometry" />
        </mxCell>
        <mxCell id="wQUBwngjyFSkvlIORtVp-20" value="Media" style="rounded=0;whiteSpace=wrap;html=1;fillColor=#6d8764;fontColor=#ffffff;strokeColor=#3A5431;" parent="wQUBwngjyFSkvlIORtVp-1" vertex="1">
          <mxGeometry x="596" y="390" width="50" height="20" as="geometry" />
        </mxCell>
        <mxCell id="wQUBwngjyFSkvlIORtVp-21" style="edgeStyle=orthogonalEdgeStyle;rounded=0;orthogonalLoop=1;jettySize=auto;html=1;entryX=0;entryY=0.5;entryDx=0;entryDy=0;" parent="wQUBwngjyFSkvlIORtVp-1" source="wQUBwngjyFSkvlIORtVp-23" target="wQUBwngjyFSkvlIORtVp-20" edge="1">
          <mxGeometry relative="1" as="geometry" />
        </mxCell>
        <mxCell id="wQUBwngjyFSkvlIORtVp-22" style="edgeStyle=orthogonalEdgeStyle;rounded=0;orthogonalLoop=1;jettySize=auto;html=1;entryX=0.5;entryY=1;entryDx=0;entryDy=0;" parent="wQUBwngjyFSkvlIORtVp-1" source="wQUBwngjyFSkvlIORtVp-23" target="wQUBwngjyFSkvlIORtVp-18" edge="1">
          <mxGeometry relative="1" as="geometry">
            <Array as="points">
              <mxPoint x="540" y="370" />
              <mxPoint x="621" y="370" />
            </Array>
          </mxGeometry>
        </mxCell>
        <mxCell id="wQUBwngjyFSkvlIORtVp-23" value="Product" style="rounded=0;whiteSpace=wrap;html=1;fillColor=#6d8764;fontColor=#ffffff;strokeColor=#3A5431;" parent="wQUBwngjyFSkvlIORtVp-1" vertex="1">
          <mxGeometry x="510" y="390" width="50" height="20" as="geometry" />
        </mxCell>
        <mxCell id="sxU3zYH5KAm-sBjheqzV-0" value="" style="endArrow=classic;startArrow=classic;html=1;rounded=0;exitX=1;exitY=0.5;exitDx=0;exitDy=0;entryX=0;entryY=0.5;entryDx=0;entryDy=0;strokeWidth=3;fillColor=#d80073;strokeColor=#A50040;" parent="wQUBwngjyFSkvlIORtVp-1" source="wQUBwngjyFSkvlIORtVp-4" target="wQUBwngjyFSkvlIORtVp-9" edge="1">
          <mxGeometry width="50" height="50" relative="1" as="geometry">
            <mxPoint x="390" y="460" as="sourcePoint" />
            <mxPoint x="440" y="410" as="targetPoint" />
          </mxGeometry>
        </mxCell>
        <mxCell id="sxU3zYH5KAm-sBjheqzV-1" value="" style="endArrow=classic;startArrow=classic;html=1;rounded=0;entryX=0;entryY=0.5;entryDx=0;entryDy=0;strokeWidth=3;fillColor=#d80073;strokeColor=#A50040;" parent="wQUBwngjyFSkvlIORtVp-1" edge="1">
          <mxGeometry width="50" height="50" relative="1" as="geometry">
            <mxPoint x="449" y="400" as="sourcePoint" />
            <mxPoint x="509" y="399.5" as="targetPoint" />
          </mxGeometry>
        </mxCell>
        <mxCell id="sxU3zYH5KAm-sBjheqzV-2" value="" style="endArrow=classic;startArrow=classic;html=1;rounded=0;exitX=1;exitY=0.5;exitDx=0;exitDy=0;entryX=0;entryY=0.5;entryDx=0;entryDy=0;strokeWidth=3;fillColor=#d80073;strokeColor=#A50040;entryPerimeter=0;" parent="wQUBwngjyFSkvlIORtVp-1" edge="1">
          <mxGeometry width="50" height="50" relative="1" as="geometry">
            <mxPoint x="232" y="464.5" as="sourcePoint" />
            <mxPoint x="361" y="465" as="targetPoint" />
          </mxGeometry>
        </mxCell>
        <mxCell id="sxU3zYH5KAm-sBjheqzV-4" value="CDC" style="edgeLabel;html=1;align=center;verticalAlign=middle;resizable=0;points=[];" parent="sxU3zYH5KAm-sBjheqzV-2" vertex="1" connectable="0">
          <mxGeometry x="-0.2247" y="-1" relative="1" as="geometry">
            <mxPoint as="offset" />
          </mxGeometry>
        </mxCell>
        <mxCell id="sxU3zYH5KAm-sBjheqzV-3" value="" style="endArrow=classic;startArrow=classic;html=1;rounded=0;exitX=1;exitY=0.5;exitDx=0;exitDy=0;strokeWidth=3;fillColor=#d80073;strokeColor=#A50040;" parent="wQUBwngjyFSkvlIORtVp-1" edge="1">
          <mxGeometry width="50" height="50" relative="1" as="geometry">
            <mxPoint x="399" y="464.5" as="sourcePoint" />
            <mxPoint x="558" y="464.9568965517242" as="targetPoint" />
          </mxGeometry>
        </mxCell>
        <mxCell id="sxU3zYH5KAm-sBjheqzV-5" value="CDC" style="edgeLabel;html=1;align=center;verticalAlign=middle;resizable=0;points=[];" parent="sxU3zYH5KAm-sBjheqzV-3" vertex="1" connectable="0">
          <mxGeometry x="-0.3586" y="2" relative="1" as="geometry">
            <mxPoint as="offset" />
          </mxGeometry>
        </mxCell>
      </root>
    </mxGraphModel>
  </diagram>
  <diagram id="OFAUKzxlKj43aaN_z02C" name="Página-3">
    <mxGraphModel dx="1114" dy="838" grid="1" gridSize="10" guides="1" tooltips="1" connect="1" arrows="1" fold="1" page="1" pageScale="1" pageWidth="827" pageHeight="1169" math="0" shadow="0">
      <root>
        <mxCell id="0" />
        <mxCell id="1" parent="0" />
        <mxCell id="DsnGqcAMi7fy5-USH3Zv-4" value="RPC síncrona" style="edgeStyle=orthogonalEdgeStyle;rounded=0;orthogonalLoop=1;jettySize=auto;html=1;exitX=0;exitY=0.75;exitDx=0;exitDy=0;entryX=1;entryY=0.75;entryDx=0;entryDy=0;verticalAlign=bottom;" parent="1" source="DsnGqcAMi7fy5-USH3Zv-1" target="DsnGqcAMi7fy5-USH3Zv-2" edge="1">
          <mxGeometry relative="1" as="geometry" />
        </mxCell>
        <mxCell id="DsnGqcAMi7fy5-USH3Zv-1" value="Produto" style="shape=image;html=1;verticalLabelPosition=bottom;verticalAlign=top;imageAspect=0;image=img/clipart/Gear_128x128.png" parent="1" vertex="1">
          <mxGeometry x="600" y="390" width="80" height="90" as="geometry" />
        </mxCell>
        <mxCell id="DsnGqcAMi7fy5-USH3Zv-5" style="edgeStyle=orthogonalEdgeStyle;rounded=0;orthogonalLoop=1;jettySize=auto;html=1;exitX=1;exitY=0.25;exitDx=0;exitDy=0;entryX=0;entryY=0.25;entryDx=0;entryDy=0;" parent="1" source="DsnGqcAMi7fy5-USH3Zv-2" target="DsnGqcAMi7fy5-USH3Zv-1" edge="1">
          <mxGeometry relative="1" as="geometry" />
        </mxCell>
        <mxCell id="DsnGqcAMi7fy5-USH3Zv-6" value="RPC assíncrona" style="edgeStyle=orthogonalEdgeStyle;rounded=0;orthogonalLoop=1;jettySize=auto;html=1;exitX=0;exitY=0.75;exitDx=0;exitDy=0;entryX=1;entryY=0.75;entryDx=0;entryDy=0;dashed=1;verticalAlign=bottom;" parent="1" source="DsnGqcAMi7fy5-USH3Zv-2" target="DsnGqcAMi7fy5-USH3Zv-3" edge="1">
          <mxGeometry relative="1" as="geometry" />
        </mxCell>
        <mxCell id="DsnGqcAMi7fy5-USH3Zv-2" value="Pedido" style="shape=image;html=1;verticalLabelPosition=bottom;verticalAlign=top;imageAspect=0;image=img/clipart/Gear_128x128.png" parent="1" vertex="1">
          <mxGeometry x="413.5" y="400" width="50" height="70" as="geometry" />
        </mxCell>
        <mxCell id="DsnGqcAMi7fy5-USH3Zv-7" style="edgeStyle=orthogonalEdgeStyle;rounded=0;orthogonalLoop=1;jettySize=auto;html=1;exitX=1;exitY=0.25;exitDx=0;exitDy=0;entryX=0;entryY=0.25;entryDx=0;entryDy=0;dashed=1;" parent="1" source="DsnGqcAMi7fy5-USH3Zv-3" target="DsnGqcAMi7fy5-USH3Zv-2" edge="1">
          <mxGeometry relative="1" as="geometry" />
        </mxCell>
        <mxCell id="DsnGqcAMi7fy5-USH3Zv-3" value="Cliente" style="shape=image;html=1;verticalLabelPosition=bottom;verticalAlign=top;imageAspect=0;image=img/clipart/Gear_128x128.png" parent="1" vertex="1">
          <mxGeometry x="230" y="410" width="40" height="50" as="geometry" />
        </mxCell>
      </root>
    </mxGraphModel>
  </diagram>
  <diagram name="Página-4" id="-C3OZXWsmEZs8JXGP6Ql">
    <mxGraphModel dx="1114" dy="838" grid="1" gridSize="10" guides="1" tooltips="1" connect="1" arrows="1" fold="1" page="1" pageScale="1" pageWidth="827" pageHeight="1169" math="0" shadow="0">
      <root>
        <mxCell id="dDXJulDfN2pXx5s7tUSs-0" />
        <mxCell id="dDXJulDfN2pXx5s7tUSs-1" parent="dDXJulDfN2pXx5s7tUSs-0" />
        <mxCell id="dDXJulDfN2pXx5s7tUSs-3" value="Produto" style="shape=image;html=1;verticalLabelPosition=bottom;verticalAlign=top;imageAspect=0;image=img/clipart/Gear_128x128.png" parent="dDXJulDfN2pXx5s7tUSs-1" vertex="1">
          <mxGeometry x="600" y="390" width="80" height="90" as="geometry" />
        </mxCell>
        <mxCell id="dDXJulDfN2pXx5s7tUSs-6" value="Pedido" style="shape=image;html=1;verticalLabelPosition=bottom;verticalAlign=top;imageAspect=0;image=img/clipart/Gear_128x128.png" parent="dDXJulDfN2pXx5s7tUSs-1" vertex="1">
          <mxGeometry x="430" y="400" width="50" height="70" as="geometry" />
        </mxCell>
        <mxCell id="ehIWwPpQT0hrtzuMgHmg-1" style="edgeStyle=orthogonalEdgeStyle;rounded=0;orthogonalLoop=1;jettySize=auto;html=1;" parent="dDXJulDfN2pXx5s7tUSs-1" edge="1">
          <mxGeometry relative="1" as="geometry">
            <mxPoint x="250" y="330" as="targetPoint" />
            <mxPoint x="250" y="390" as="sourcePoint" />
          </mxGeometry>
        </mxCell>
        <mxCell id="dDXJulDfN2pXx5s7tUSs-8" value="Cliente" style="shape=image;html=1;verticalLabelPosition=bottom;verticalAlign=top;imageAspect=0;image=img/clipart/Gear_128x128.png" parent="dDXJulDfN2pXx5s7tUSs-1" vertex="1">
          <mxGeometry x="230" y="410" width="40" height="50" as="geometry" />
        </mxCell>
        <mxCell id="ehIWwPpQT0hrtzuMgHmg-2" style="edgeStyle=orthogonalEdgeStyle;rounded=0;orthogonalLoop=1;jettySize=auto;html=1;" parent="dDXJulDfN2pXx5s7tUSs-1" edge="1">
          <mxGeometry relative="1" as="geometry">
            <mxPoint x="455" y="390" as="targetPoint" />
            <mxPoint x="455" y="330" as="sourcePoint" />
          </mxGeometry>
        </mxCell>
        <mxCell id="ehIWwPpQT0hrtzuMgHmg-0" value="Broker" style="shape=cylinder3;whiteSpace=wrap;html=1;boundedLbl=1;backgroundOutline=1;size=10;rotation=90;fillColor=#fa6800;fontColor=#ffffff;strokeColor=#C73500;horizontal=0;fontSize=15;" parent="dDXJulDfN2pXx5s7tUSs-1" vertex="1">
          <mxGeometry x="440" y="70" width="30" height="480" as="geometry" />
        </mxCell>
        <mxCell id="ehIWwPpQT0hrtzuMgHmg-3" value="" style="endArrow=classic;html=1;rounded=0;" parent="dDXJulDfN2pXx5s7tUSs-1" edge="1">
          <mxGeometry width="50" height="50" relative="1" as="geometry">
            <mxPoint x="650" y="330" as="sourcePoint" />
            <mxPoint x="650" y="380" as="targetPoint" />
          </mxGeometry>
        </mxCell>
        <mxCell id="ehIWwPpQT0hrtzuMgHmg-4" value="" style="shape=message;html=1;html=1;outlineConnect=0;labelPosition=center;verticalLabelPosition=bottom;align=center;verticalAlign=top;" parent="dDXJulDfN2pXx5s7tUSs-1" vertex="1">
          <mxGeometry x="260" y="350" width="30" height="20" as="geometry" />
        </mxCell>
        <mxCell id="ehIWwPpQT0hrtzuMgHmg-5" value="" style="shape=message;html=1;html=1;outlineConnect=0;labelPosition=center;verticalLabelPosition=bottom;align=center;verticalAlign=top;" parent="dDXJulDfN2pXx5s7tUSs-1" vertex="1">
          <mxGeometry x="460" y="350" width="30" height="20" as="geometry" />
        </mxCell>
        <mxCell id="ehIWwPpQT0hrtzuMgHmg-6" value="" style="shape=message;html=1;html=1;outlineConnect=0;labelPosition=center;verticalLabelPosition=bottom;align=center;verticalAlign=top;" parent="dDXJulDfN2pXx5s7tUSs-1" vertex="1">
          <mxGeometry x="660" y="350" width="30" height="20" as="geometry" />
        </mxCell>
      </root>
    </mxGraphModel>
  </diagram>
  <diagram name="Página-5" id="1QcUAZFzQg46h5SXRUaX">
    <mxGraphModel dx="1114" dy="838" grid="1" gridSize="10" guides="1" tooltips="1" connect="1" arrows="1" fold="1" page="1" pageScale="1" pageWidth="827" pageHeight="1169" math="0" shadow="0">
      <root>
        <mxCell id="LfwSZE9MUdNEmOBJfYp_-0" />
        <mxCell id="LfwSZE9MUdNEmOBJfYp_-1" parent="LfwSZE9MUdNEmOBJfYp_-0" />
        <mxCell id="LfwSZE9MUdNEmOBJfYp_-2" value="Produto" style="shape=image;html=1;verticalLabelPosition=bottom;verticalAlign=top;imageAspect=0;image=img/clipart/Gear_128x128.png" vertex="1" parent="LfwSZE9MUdNEmOBJfYp_-1">
          <mxGeometry x="600" y="380" width="80" height="90" as="geometry" />
        </mxCell>
        <mxCell id="LfwSZE9MUdNEmOBJfYp_-3" value="Pedido" style="shape=image;html=1;verticalLabelPosition=bottom;verticalAlign=top;imageAspect=0;image=img/clipart/Gear_128x128.png" vertex="1" parent="LfwSZE9MUdNEmOBJfYp_-1">
          <mxGeometry x="417" y="400" width="50" height="70" as="geometry" />
        </mxCell>
        <mxCell id="LfwSZE9MUdNEmOBJfYp_-5" value="Cliente" style="shape=image;html=1;verticalLabelPosition=bottom;verticalAlign=top;imageAspect=0;image=img/clipart/Gear_128x128.png" vertex="1" parent="LfwSZE9MUdNEmOBJfYp_-1">
          <mxGeometry x="230" y="420" width="40" height="50" as="geometry" />
        </mxCell>
        <mxCell id="VYCj9mKGZnpz-guZ-TzI-6" style="edgeStyle=orthogonalEdgeStyle;rounded=0;orthogonalLoop=1;jettySize=auto;html=1;exitX=0;exitY=1;exitDx=0;exitDy=0;entryX=1;entryY=0;entryDx=0;entryDy=0;fontColor=#329a6d;strokeColor=#329a6d;" edge="1" parent="LfwSZE9MUdNEmOBJfYp_-1" source="VYCj9mKGZnpz-guZ-TzI-0" target="VYCj9mKGZnpz-guZ-TzI-1">
          <mxGeometry relative="1" as="geometry" />
        </mxCell>
        <mxCell id="VYCj9mKGZnpz-guZ-TzI-8" style="edgeStyle=orthogonalEdgeStyle;rounded=0;orthogonalLoop=1;jettySize=auto;html=1;exitX=1;exitY=1;exitDx=0;exitDy=0;entryX=0.5;entryY=0;entryDx=0;entryDy=0;fontColor=#329a6d;strokeColor=#329a6d;" edge="1" parent="LfwSZE9MUdNEmOBJfYp_-1" source="VYCj9mKGZnpz-guZ-TzI-0" target="VYCj9mKGZnpz-guZ-TzI-2">
          <mxGeometry relative="1" as="geometry" />
        </mxCell>
        <mxCell id="VYCj9mKGZnpz-guZ-TzI-0" value="" style="ellipse;whiteSpace=wrap;html=1;aspect=fixed;fontColor=#329a6d;strokeColor=#329a6d;" vertex="1" parent="LfwSZE9MUdNEmOBJfYp_-1">
          <mxGeometry x="633" y="210" width="20" height="20" as="geometry" />
        </mxCell>
        <mxCell id="VYCj9mKGZnpz-guZ-TzI-9" style="edgeStyle=orthogonalEdgeStyle;rounded=0;orthogonalLoop=1;jettySize=auto;html=1;exitX=0;exitY=1;exitDx=0;exitDy=0;entryX=0.5;entryY=0;entryDx=0;entryDy=0;fontColor=#329a6d;strokeColor=#329a6d;" edge="1" parent="LfwSZE9MUdNEmOBJfYp_-1" source="VYCj9mKGZnpz-guZ-TzI-1" target="VYCj9mKGZnpz-guZ-TzI-3">
          <mxGeometry relative="1" as="geometry" />
        </mxCell>
        <mxCell id="VYCj9mKGZnpz-guZ-TzI-10" style="edgeStyle=orthogonalEdgeStyle;rounded=0;orthogonalLoop=1;jettySize=auto;html=1;exitX=1;exitY=1;exitDx=0;exitDy=0;entryX=0.5;entryY=0;entryDx=0;entryDy=0;fontColor=#329a6d;strokeColor=#329a6d;" edge="1" parent="LfwSZE9MUdNEmOBJfYp_-1" source="VYCj9mKGZnpz-guZ-TzI-1" target="VYCj9mKGZnpz-guZ-TzI-5">
          <mxGeometry relative="1" as="geometry" />
        </mxCell>
        <mxCell id="VYCj9mKGZnpz-guZ-TzI-1" value="" style="ellipse;whiteSpace=wrap;html=1;aspect=fixed;fontColor=#329a6d;strokeColor=#329a6d;" vertex="1" parent="LfwSZE9MUdNEmOBJfYp_-1">
          <mxGeometry x="600" y="240" width="20" height="20" as="geometry" />
        </mxCell>
        <mxCell id="VYCj9mKGZnpz-guZ-TzI-2" value="" style="ellipse;whiteSpace=wrap;html=1;aspect=fixed;fontColor=#329a6d;strokeColor=#329a6d;" vertex="1" parent="LfwSZE9MUdNEmOBJfYp_-1">
          <mxGeometry x="660" y="240" width="20" height="20" as="geometry" />
        </mxCell>
        <mxCell id="VYCj9mKGZnpz-guZ-TzI-3" value="" style="ellipse;whiteSpace=wrap;html=1;aspect=fixed;fontColor=#329a6d;strokeColor=#329a6d;" vertex="1" parent="LfwSZE9MUdNEmOBJfYp_-1">
          <mxGeometry x="574" y="270" width="20" height="20" as="geometry" />
        </mxCell>
        <mxCell id="VYCj9mKGZnpz-guZ-TzI-5" value="" style="ellipse;whiteSpace=wrap;html=1;aspect=fixed;fontColor=#329a6d;strokeColor=#329a6d;" vertex="1" parent="LfwSZE9MUdNEmOBJfYp_-1">
          <mxGeometry x="624" y="270" width="20" height="20" as="geometry" />
        </mxCell>
        <mxCell id="VYCj9mKGZnpz-guZ-TzI-11" value="Registro" style="text;html=1;strokeColor=none;fillColor=none;align=center;verticalAlign=middle;whiteSpace=wrap;rounded=0;fontColor=#329a6d;" vertex="1" parent="LfwSZE9MUdNEmOBJfYp_-1">
          <mxGeometry x="610" y="180" width="60" height="30" as="geometry" />
        </mxCell>
        <mxCell id="VYCj9mKGZnpz-guZ-TzI-12" value="20.10.34.43:8080" style="text;html=1;strokeColor=none;fillColor=none;align=center;verticalAlign=middle;whiteSpace=wrap;rounded=0;fontColor=#329a6d;fontStyle=1" vertex="1" parent="LfwSZE9MUdNEmOBJfYp_-1">
          <mxGeometry x="195" y="490" width="110" height="30" as="geometry" />
        </mxCell>
        <mxCell id="VYCj9mKGZnpz-guZ-TzI-13" value="20.18.23.43:1734" style="text;html=1;strokeColor=none;fillColor=none;align=center;verticalAlign=middle;whiteSpace=wrap;rounded=0;fontColor=#329a6d;fontStyle=1" vertex="1" parent="LfwSZE9MUdNEmOBJfYp_-1">
          <mxGeometry x="387" y="490" width="110" height="30" as="geometry" />
        </mxCell>
        <mxCell id="VYCj9mKGZnpz-guZ-TzI-14" value="22.39.23.41:80" style="text;html=1;strokeColor=none;fillColor=none;align=center;verticalAlign=middle;whiteSpace=wrap;rounded=0;fontColor=#329a6d;fontStyle=1" vertex="1" parent="LfwSZE9MUdNEmOBJfYp_-1">
          <mxGeometry x="588" y="490" width="110" height="30" as="geometry" />
        </mxCell>
        <mxCell id="VYCj9mKGZnpz-guZ-TzI-15" value="&lt;span style=&quot;font-weight: normal;&quot;&gt;Cliente: 20.10.34.43:8080&lt;br&gt;Pedido: 20.18.23.43:1734&lt;br&gt;Produto: 22.39.23.41:80&lt;br&gt;&lt;/span&gt;" style="text;html=1;strokeColor=none;fillColor=none;align=center;verticalAlign=middle;whiteSpace=wrap;rounded=0;fontColor=#329a6d;fontStyle=1" vertex="1" parent="LfwSZE9MUdNEmOBJfYp_-1">
          <mxGeometry x="549" y="300" width="170" height="50" as="geometry" />
        </mxCell>
        <mxCell id="VYCj9mKGZnpz-guZ-TzI-16" value="" style="image;sketch=0;aspect=fixed;html=1;points=[];align=center;fontSize=12;image=img/lib/mscae/CustomDomain.svg;" vertex="1" parent="LfwSZE9MUdNEmOBJfYp_-1">
          <mxGeometry x="230" y="210" width="84.52" height="71" as="geometry" />
        </mxCell>
        <mxCell id="VYCj9mKGZnpz-guZ-TzI-17" value="" style="endArrow=block;dashed=1;html=1;rounded=0;endFill=1;strokeColor=#329a6d;" edge="1" parent="LfwSZE9MUdNEmOBJfYp_-1">
          <mxGeometry width="50" height="50" relative="1" as="geometry">
            <mxPoint x="320" y="250" as="sourcePoint" />
            <mxPoint x="570" y="250" as="targetPoint" />
          </mxGeometry>
        </mxCell>
        <mxCell id="VYCj9mKGZnpz-guZ-TzI-18" value="" style="endArrow=block;html=1;rounded=0;endFill=1;strokeColor=#ee5311;strokeWidth=2;" edge="1" parent="LfwSZE9MUdNEmOBJfYp_-1">
          <mxGeometry width="50" height="50" relative="1" as="geometry">
            <mxPoint x="270" y="290" as="sourcePoint" />
            <mxPoint x="250" y="410" as="targetPoint" />
          </mxGeometry>
        </mxCell>
        <mxCell id="VYCj9mKGZnpz-guZ-TzI-19" value="" style="endArrow=block;dashed=1;html=1;rounded=0;endFill=1;strokeColor=#329a6d;" edge="1" parent="LfwSZE9MUdNEmOBJfYp_-1">
          <mxGeometry width="50" height="50" relative="1" as="geometry">
            <mxPoint x="280" y="420" as="sourcePoint" />
            <mxPoint x="560" y="270" as="targetPoint" />
          </mxGeometry>
        </mxCell>
      </root>
    </mxGraphModel>
  </diagram>
  <diagram name="Página-6" id="PhDQSYkBZBYnWQ4mYxvY">
    <mxGraphModel dx="1114" dy="838" grid="1" gridSize="10" guides="1" tooltips="1" connect="1" arrows="1" fold="1" page="1" pageScale="1" pageWidth="827" pageHeight="1169" math="0" shadow="0">
      <root>
        <mxCell id="H1OtOuQkdn4PRa04AyyJ-0" />
        <mxCell id="H1OtOuQkdn4PRa04AyyJ-1" parent="H1OtOuQkdn4PRa04AyyJ-0" />
        <mxCell id="H1OtOuQkdn4PRa04AyyJ-2" value="Produto" style="shape=image;html=1;verticalLabelPosition=bottom;verticalAlign=top;imageAspect=0;image=img/clipart/Gear_128x128.png" vertex="1" parent="H1OtOuQkdn4PRa04AyyJ-1">
          <mxGeometry x="600" y="380" width="80" height="90" as="geometry" />
        </mxCell>
        <mxCell id="H1OtOuQkdn4PRa04AyyJ-3" value="Pedido" style="shape=image;html=1;verticalLabelPosition=bottom;verticalAlign=top;imageAspect=0;image=img/clipart/Gear_128x128.png" vertex="1" parent="H1OtOuQkdn4PRa04AyyJ-1">
          <mxGeometry x="417" y="400" width="50" height="70" as="geometry" />
        </mxCell>
        <mxCell id="H1OtOuQkdn4PRa04AyyJ-4" value="Cliente" style="shape=image;html=1;verticalLabelPosition=bottom;verticalAlign=top;imageAspect=0;image=img/clipart/Gear_128x128.png" vertex="1" parent="H1OtOuQkdn4PRa04AyyJ-1">
          <mxGeometry x="230" y="420" width="40" height="50" as="geometry" />
        </mxCell>
        <mxCell id="H1OtOuQkdn4PRa04AyyJ-19" value="" style="image;sketch=0;aspect=fixed;html=1;points=[];align=center;fontSize=12;image=img/lib/mscae/CustomDomain.svg;" vertex="1" parent="H1OtOuQkdn4PRa04AyyJ-1">
          <mxGeometry x="230" y="210" width="84.52" height="71" as="geometry" />
        </mxCell>
        <mxCell id="H1OtOuQkdn4PRa04AyyJ-21" value="" style="endArrow=block;html=1;rounded=0;endFill=1;strokeColor=#ee5311;strokeWidth=2;" edge="1" parent="H1OtOuQkdn4PRa04AyyJ-1">
          <mxGeometry width="50" height="50" relative="1" as="geometry">
            <mxPoint x="270" y="290" as="sourcePoint" />
            <mxPoint x="250" y="410" as="targetPoint" />
          </mxGeometry>
        </mxCell>
        <mxCell id="PwlmUwFdpFYjUu_oRTeR-12" value="" style="group" vertex="1" connectable="0" parent="H1OtOuQkdn4PRa04AyyJ-1">
          <mxGeometry x="290" y="412" width="92" height="61" as="geometry" />
        </mxCell>
        <mxCell id="PwlmUwFdpFYjUu_oRTeR-3" value="" style="ellipse;whiteSpace=wrap;html=1;aspect=fixed;" vertex="1" parent="PwlmUwFdpFYjUu_oRTeR-12">
          <mxGeometry y="38" width="20" height="20" as="geometry" />
        </mxCell>
        <mxCell id="PwlmUwFdpFYjUu_oRTeR-4" value="" style="verticalLabelPosition=bottom;verticalAlign=top;html=1;shape=mxgraph.basic.x" vertex="1" parent="PwlmUwFdpFYjUu_oRTeR-12">
          <mxGeometry x="31.519999999999982" y="38" width="20" height="20" as="geometry" />
        </mxCell>
        <mxCell id="PwlmUwFdpFYjUu_oRTeR-5" value="" style="verticalLabelPosition=bottom;verticalAlign=top;html=1;shape=mxgraph.basic.tick" vertex="1" parent="PwlmUwFdpFYjUu_oRTeR-12">
          <mxGeometry x="62" y="30" width="30" height="30" as="geometry" />
        </mxCell>
        <mxCell id="PwlmUwFdpFYjUu_oRTeR-6" value=".." style="text;html=1;strokeColor=none;fillColor=none;align=center;verticalAlign=middle;whiteSpace=wrap;rounded=0;" vertex="1" parent="PwlmUwFdpFYjUu_oRTeR-12">
          <mxGeometry x="13.519999999999982" y="31" width="28.48" height="30" as="geometry" />
        </mxCell>
        <mxCell id="PwlmUwFdpFYjUu_oRTeR-7" value=".." style="text;html=1;strokeColor=none;fillColor=none;align=center;verticalAlign=middle;whiteSpace=wrap;rounded=0;" vertex="1" parent="PwlmUwFdpFYjUu_oRTeR-12">
          <mxGeometry x="41.51999999999998" y="31" width="28.48" height="30" as="geometry" />
        </mxCell>
        <mxCell id="PwlmUwFdpFYjUu_oRTeR-11" value="" style="curved=1;endArrow=classic;html=1;rounded=0;" edge="1" parent="PwlmUwFdpFYjUu_oRTeR-12">
          <mxGeometry width="50" height="50" relative="1" as="geometry">
            <mxPoint x="10" y="25" as="sourcePoint" />
            <mxPoint x="70" y="25" as="targetPoint" />
            <Array as="points">
              <mxPoint x="20" y="10" />
              <mxPoint x="40" />
              <mxPoint x="60" y="10" />
            </Array>
          </mxGeometry>
        </mxCell>
        <mxCell id="PwlmUwFdpFYjUu_oRTeR-13" value="" style="group" vertex="1" connectable="0" parent="H1OtOuQkdn4PRa04AyyJ-1">
          <mxGeometry x="490" y="413" width="92" height="61" as="geometry" />
        </mxCell>
        <mxCell id="PwlmUwFdpFYjUu_oRTeR-14" value="" style="ellipse;whiteSpace=wrap;html=1;aspect=fixed;" vertex="1" parent="PwlmUwFdpFYjUu_oRTeR-13">
          <mxGeometry y="38" width="20" height="20" as="geometry" />
        </mxCell>
        <mxCell id="PwlmUwFdpFYjUu_oRTeR-15" value="" style="verticalLabelPosition=bottom;verticalAlign=top;html=1;shape=mxgraph.basic.x" vertex="1" parent="PwlmUwFdpFYjUu_oRTeR-13">
          <mxGeometry x="31.519999999999982" y="38" width="20" height="20" as="geometry" />
        </mxCell>
        <mxCell id="PwlmUwFdpFYjUu_oRTeR-16" value="" style="verticalLabelPosition=bottom;verticalAlign=top;html=1;shape=mxgraph.basic.tick" vertex="1" parent="PwlmUwFdpFYjUu_oRTeR-13">
          <mxGeometry x="62" y="30" width="30" height="30" as="geometry" />
        </mxCell>
        <mxCell id="PwlmUwFdpFYjUu_oRTeR-17" value=".." style="text;html=1;strokeColor=none;fillColor=none;align=center;verticalAlign=middle;whiteSpace=wrap;rounded=0;" vertex="1" parent="PwlmUwFdpFYjUu_oRTeR-13">
          <mxGeometry x="13.519999999999982" y="31" width="28.48" height="30" as="geometry" />
        </mxCell>
        <mxCell id="PwlmUwFdpFYjUu_oRTeR-18" value=".." style="text;html=1;strokeColor=none;fillColor=none;align=center;verticalAlign=middle;whiteSpace=wrap;rounded=0;" vertex="1" parent="PwlmUwFdpFYjUu_oRTeR-13">
          <mxGeometry x="41.51999999999998" y="31" width="28.48" height="30" as="geometry" />
        </mxCell>
        <mxCell id="PwlmUwFdpFYjUu_oRTeR-19" value="" style="curved=1;endArrow=classic;html=1;rounded=0;" edge="1" parent="PwlmUwFdpFYjUu_oRTeR-13">
          <mxGeometry width="50" height="50" relative="1" as="geometry">
            <mxPoint x="10" y="25" as="sourcePoint" />
            <mxPoint x="70" y="25" as="targetPoint" />
            <Array as="points">
              <mxPoint x="20" y="10" />
              <mxPoint x="40" />
              <mxPoint x="60" y="10" />
            </Array>
          </mxGeometry>
        </mxCell>
        <mxCell id="PwlmUwFdpFYjUu_oRTeR-23" value="" style="group" vertex="1" connectable="0" parent="H1OtOuQkdn4PRa04AyyJ-1">
          <mxGeometry x="358" y="232" width="63" height="61" as="geometry" />
        </mxCell>
        <mxCell id="H1OtOuQkdn4PRa04AyyJ-12" value="" style="ellipse;whiteSpace=wrap;html=1;aspect=fixed;fontColor=#329a6d;strokeColor=#329a6d;" vertex="1" parent="PwlmUwFdpFYjUu_oRTeR-23">
          <mxGeometry width="20" height="20" as="geometry" />
        </mxCell>
        <mxCell id="H1OtOuQkdn4PRa04AyyJ-13" value="" style="ellipse;whiteSpace=wrap;html=1;aspect=fixed;fontColor=#329a6d;strokeColor=#329a6d;" vertex="1" parent="PwlmUwFdpFYjUu_oRTeR-23">
          <mxGeometry x="43" y="41" width="20" height="20" as="geometry" />
        </mxCell>
        <mxCell id="PwlmUwFdpFYjUu_oRTeR-1" value="" style="rhombus;whiteSpace=wrap;html=1;" vertex="1" parent="PwlmUwFdpFYjUu_oRTeR-23">
          <mxGeometry x="43" y="1" width="20" height="20" as="geometry" />
        </mxCell>
        <mxCell id="PwlmUwFdpFYjUu_oRTeR-2" value="" style="rounded=0;whiteSpace=wrap;html=1;" vertex="1" parent="PwlmUwFdpFYjUu_oRTeR-23">
          <mxGeometry x="3" y="43" width="15" height="15" as="geometry" />
        </mxCell>
        <mxCell id="PwlmUwFdpFYjUu_oRTeR-20" value="" style="endArrow=classic;html=1;rounded=0;" edge="1" parent="PwlmUwFdpFYjUu_oRTeR-23">
          <mxGeometry width="50" height="50" relative="1" as="geometry">
            <mxPoint x="11" y="39" as="sourcePoint" />
            <mxPoint x="11" y="22" as="targetPoint" />
          </mxGeometry>
        </mxCell>
        <mxCell id="PwlmUwFdpFYjUu_oRTeR-21" value="" style="endArrow=none;html=1;rounded=0;startArrow=classic;startFill=1;endFill=0;" edge="1" parent="PwlmUwFdpFYjUu_oRTeR-23">
          <mxGeometry width="50" height="50" relative="1" as="geometry">
            <mxPoint x="53" y="40" as="sourcePoint" />
            <mxPoint x="53" y="23" as="targetPoint" />
          </mxGeometry>
        </mxCell>
        <mxCell id="PwlmUwFdpFYjUu_oRTeR-22" value="" style="endArrow=classic;html=1;rounded=0;" edge="1" parent="PwlmUwFdpFYjUu_oRTeR-23">
          <mxGeometry width="50" height="50" relative="1" as="geometry">
            <mxPoint x="23" y="11" as="sourcePoint" />
            <mxPoint x="41" y="11" as="targetPoint" />
          </mxGeometry>
        </mxCell>
        <mxCell id="PwlmUwFdpFYjUu_oRTeR-24" value="" style="group" vertex="1" connectable="0" parent="H1OtOuQkdn4PRa04AyyJ-1">
          <mxGeometry x="555" y="234" width="63" height="61" as="geometry" />
        </mxCell>
        <mxCell id="PwlmUwFdpFYjUu_oRTeR-25" value="" style="ellipse;whiteSpace=wrap;html=1;aspect=fixed;fontColor=#329a6d;strokeColor=#329a6d;" vertex="1" parent="PwlmUwFdpFYjUu_oRTeR-24">
          <mxGeometry width="20" height="20" as="geometry" />
        </mxCell>
        <mxCell id="PwlmUwFdpFYjUu_oRTeR-26" value="" style="ellipse;whiteSpace=wrap;html=1;aspect=fixed;fontColor=#329a6d;strokeColor=#329a6d;" vertex="1" parent="PwlmUwFdpFYjUu_oRTeR-24">
          <mxGeometry x="43" y="41" width="20" height="20" as="geometry" />
        </mxCell>
        <mxCell id="PwlmUwFdpFYjUu_oRTeR-27" value="" style="rhombus;whiteSpace=wrap;html=1;" vertex="1" parent="PwlmUwFdpFYjUu_oRTeR-24">
          <mxGeometry x="43" y="1" width="20" height="20" as="geometry" />
        </mxCell>
        <mxCell id="PwlmUwFdpFYjUu_oRTeR-28" value="" style="rounded=0;whiteSpace=wrap;html=1;" vertex="1" parent="PwlmUwFdpFYjUu_oRTeR-24">
          <mxGeometry x="3" y="43" width="15" height="15" as="geometry" />
        </mxCell>
        <mxCell id="PwlmUwFdpFYjUu_oRTeR-29" value="" style="endArrow=classic;html=1;rounded=0;" edge="1" parent="PwlmUwFdpFYjUu_oRTeR-24">
          <mxGeometry width="50" height="50" relative="1" as="geometry">
            <mxPoint x="11" y="39" as="sourcePoint" />
            <mxPoint x="11" y="22" as="targetPoint" />
          </mxGeometry>
        </mxCell>
        <mxCell id="PwlmUwFdpFYjUu_oRTeR-30" value="" style="endArrow=none;html=1;rounded=0;startArrow=classic;startFill=1;endFill=0;" edge="1" parent="PwlmUwFdpFYjUu_oRTeR-24">
          <mxGeometry width="50" height="50" relative="1" as="geometry">
            <mxPoint x="53" y="40" as="sourcePoint" />
            <mxPoint x="53" y="23" as="targetPoint" />
          </mxGeometry>
        </mxCell>
        <mxCell id="PwlmUwFdpFYjUu_oRTeR-31" value="" style="endArrow=classic;html=1;rounded=0;" edge="1" parent="PwlmUwFdpFYjUu_oRTeR-24">
          <mxGeometry width="50" height="50" relative="1" as="geometry">
            <mxPoint x="23" y="11" as="sourcePoint" />
            <mxPoint x="41" y="11" as="targetPoint" />
          </mxGeometry>
        </mxCell>
        <mxCell id="PwlmUwFdpFYjUu_oRTeR-32" value="" style="endArrow=block;html=1;rounded=0;endFill=1;strokeColor=#ee5311;strokeWidth=2;" edge="1" parent="H1OtOuQkdn4PRa04AyyJ-1">
          <mxGeometry width="50" height="50" relative="1" as="geometry">
            <mxPoint x="340" y="400" as="sourcePoint" />
            <mxPoint x="380" y="300" as="targetPoint" />
          </mxGeometry>
        </mxCell>
        <mxCell id="PwlmUwFdpFYjUu_oRTeR-33" value="" style="endArrow=block;html=1;rounded=0;endFill=1;strokeColor=#ee5311;strokeWidth=2;" edge="1" parent="H1OtOuQkdn4PRa04AyyJ-1">
          <mxGeometry width="50" height="50" relative="1" as="geometry">
            <mxPoint x="540" y="400" as="sourcePoint" />
            <mxPoint x="580" y="300" as="targetPoint" />
          </mxGeometry>
        </mxCell>
      </root>
    </mxGraphModel>
  </diagram>
  <diagram name="Página-7" id="hLZBUx6OaAmnLgdKaaEz">
    <mxGraphModel dx="1114" dy="838" grid="1" gridSize="10" guides="1" tooltips="1" connect="1" arrows="1" fold="1" page="1" pageScale="1" pageWidth="827" pageHeight="1169" math="0" shadow="0">
      <root>
        <mxCell id="Sbr6CWk15ms_-o_quFuD-0" />
        <mxCell id="Sbr6CWk15ms_-o_quFuD-1" parent="Sbr6CWk15ms_-o_quFuD-0" />
        <mxCell id="TyF8auWVjdlGY3yr9C69-6" value="" style="rounded=1;whiteSpace=wrap;html=1;dashed=1;" vertex="1" parent="Sbr6CWk15ms_-o_quFuD-1">
          <mxGeometry x="200" y="200" width="500" height="90" as="geometry" />
        </mxCell>
        <mxCell id="Sbr6CWk15ms_-o_quFuD-2" value="Produto" style="shape=image;html=1;verticalLabelPosition=bottom;verticalAlign=top;imageAspect=0;image=img/clipart/Gear_128x128.png" vertex="1" parent="Sbr6CWk15ms_-o_quFuD-1">
          <mxGeometry x="605" y="383" width="80" height="90" as="geometry" />
        </mxCell>
        <mxCell id="Sbr6CWk15ms_-o_quFuD-3" value="Pedido" style="shape=image;html=1;verticalLabelPosition=bottom;verticalAlign=top;imageAspect=0;image=img/clipart/Gear_128x128.png" vertex="1" parent="Sbr6CWk15ms_-o_quFuD-1">
          <mxGeometry x="422" y="403" width="50" height="70" as="geometry" />
        </mxCell>
        <mxCell id="Sbr6CWk15ms_-o_quFuD-4" value="Cliente" style="shape=image;html=1;verticalLabelPosition=bottom;verticalAlign=top;imageAspect=0;image=img/clipart/Gear_128x128.png" vertex="1" parent="Sbr6CWk15ms_-o_quFuD-1">
          <mxGeometry x="235" y="423" width="40" height="50" as="geometry" />
        </mxCell>
        <mxCell id="Sbr6CWk15ms_-o_quFuD-5" value="" style="image;sketch=0;aspect=fixed;html=1;points=[];align=center;fontSize=12;image=img/lib/mscae/CustomDomain.svg;" vertex="1" parent="Sbr6CWk15ms_-o_quFuD-1">
          <mxGeometry x="405" y="210" width="84.52" height="71" as="geometry" />
        </mxCell>
        <mxCell id="TyF8auWVjdlGY3yr9C69-0" value="" style="verticalLabelPosition=bottom;verticalAlign=top;html=1;shadow=0;dashed=0;strokeWidth=1;shape=mxgraph.android.phone2;strokeColor=#c0c0c0;" vertex="1" parent="Sbr6CWk15ms_-o_quFuD-1">
          <mxGeometry x="263" y="220" width="30" height="50" as="geometry" />
        </mxCell>
        <mxCell id="TyF8auWVjdlGY3yr9C69-1" value="" style="verticalLabelPosition=bottom;verticalAlign=top;html=1;shadow=0;dashed=0;strokeWidth=1;shape=mxgraph.android.tab2;strokeColor=#c0c0c0;direction=north;" vertex="1" parent="Sbr6CWk15ms_-o_quFuD-1">
          <mxGeometry x="600" y="220" width="70" height="50" as="geometry" />
        </mxCell>
        <mxCell id="TyF8auWVjdlGY3yr9C69-3" style="edgeStyle=orthogonalEdgeStyle;rounded=0;orthogonalLoop=1;jettySize=auto;html=1;exitX=0.25;exitY=1;exitDx=0;exitDy=0;" edge="1" parent="Sbr6CWk15ms_-o_quFuD-1" source="TyF8auWVjdlGY3yr9C69-2">
          <mxGeometry relative="1" as="geometry">
            <mxPoint x="255" y="413" as="targetPoint" />
          </mxGeometry>
        </mxCell>
        <mxCell id="TyF8auWVjdlGY3yr9C69-4" style="edgeStyle=orthogonalEdgeStyle;rounded=0;orthogonalLoop=1;jettySize=auto;html=1;" edge="1" parent="Sbr6CWk15ms_-o_quFuD-1" source="TyF8auWVjdlGY3yr9C69-2">
          <mxGeometry relative="1" as="geometry">
            <mxPoint x="447" y="393" as="targetPoint" />
          </mxGeometry>
        </mxCell>
        <mxCell id="TyF8auWVjdlGY3yr9C69-2" value="API Gateway" style="shape=trapezoid;perimeter=trapezoidPerimeter;whiteSpace=wrap;html=1;fixedSize=1;" vertex="1" parent="Sbr6CWk15ms_-o_quFuD-1">
          <mxGeometry x="387" y="313" width="120" height="30" as="geometry" />
        </mxCell>
        <mxCell id="TyF8auWVjdlGY3yr9C69-5" style="edgeStyle=orthogonalEdgeStyle;rounded=0;orthogonalLoop=1;jettySize=auto;html=1;exitX=0.75;exitY=1;exitDx=0;exitDy=0;entryX=0.425;entryY=-0.022;entryDx=0;entryDy=0;entryPerimeter=0;" edge="1" parent="Sbr6CWk15ms_-o_quFuD-1" source="TyF8auWVjdlGY3yr9C69-2" target="Sbr6CWk15ms_-o_quFuD-2">
          <mxGeometry relative="1" as="geometry" />
        </mxCell>
        <mxCell id="TyF8auWVjdlGY3yr9C69-8" style="edgeStyle=orthogonalEdgeStyle;rounded=0;orthogonalLoop=1;jettySize=auto;html=1;" edge="1" parent="Sbr6CWk15ms_-o_quFuD-1" source="TyF8auWVjdlGY3yr9C69-6">
          <mxGeometry relative="1" as="geometry">
            <mxPoint x="450" y="310" as="targetPoint" />
          </mxGeometry>
        </mxCell>
      </root>
    </mxGraphModel>
  </diagram>
</mxfile>
